<svg id="图层_1" data-name="图层 1" xmlns="http://www.w3.org/2000/svg" width="630.95996" height="634.76762" viewBox="0 0 630.95996 634.76762">
  <rect x="0" y="0" width="630.95996" height="634.76762" fill="#ffffff"/>
  <rect x="330.62589" y="145.30804" width="59.99713" height="159.99859" transform="translate(-53.68846 318.55631) rotate(-45.00205)" style="fill: #231916"/>
  <rect x="330.62397" y="0.23068" width="59.99997" height="159.99719" transform="translate(48.89373 276.04884) rotate(-45.00002)" style="fill: #231916"/>
  <rect x="176.77835" y="0.9855" width="59.99717" height="159.99859" transform="translate(3.29553 167.47655) rotate(-44.99798)" style="fill: #231916"/>
  <rect x="48.99874" y="195.30753" width="159.99965" height="59.9993" transform="translate(-121.53284 154.75498) rotate(-44.9995)" style="fill: #231916"/>
  <rect x="126.45284" y="332.97488" width="59.99999" height="159.99464" transform="translate(-246.1915 229.13614) rotate(-45.00001)" style="fill: #231916"/>
  <rect x="5.58355" y="382.97223" width="159.9993" height="59.99994" transform="translate(-266.94857 179.02349) rotate(-44.99997)" style="fill: #231916"/>
  <rect x="272.33734" y="471.6347" width="59.9972" height="159.9986" transform="translate(-301.50733 372.88816) rotate(-44.99849)" style="fill: #231916"/>
  <rect x="224.55618" y="113.62829" width="60" height="400" style="fill: #00a1e9"/>
  <g>
    <rect x="118.49087" y="-29.05578" width="59.99786" height="359.99823" transform="translate(-63.24138 146.75638) rotate(-44.99932)" style="fill: #00a1e9"/>
    <rect x="180.62315" y="120.94488" width="359.99858" height="59.99715" transform="translate(-1.10694 296.76503) rotate(-45.0009)" style="fill: #00a1e9"/>
  </g>
  <g>
    <rect x="334.29506" y="308.7256" width="59.99929" height="359.99751" transform="translate(-238.88086 398.28977) rotate(-45)" style="fill: #00a1e9"/>
    <rect x="-27.83579" y="458.72449" width="359.99716" height="59.99998" transform="translate(-301.01295 248.28991) rotate(-45)" style="fill: #00a1e9"/>
  </g>
  <text transform="translate(312.48399 376.71302)" style="font-size: 85px;fill: #009fe8;stroke: #009fe8;stroke-miterlimit: 10;stroke-width: 3px;font-family: DengXian-Bold, DengXian;font-weight: 700;letter-spacing: -0.05em">Mu<tspan x="119.66406" y="0" style="fill: #231815;stroke: #231815">du</tspan><tspan x="211.97754" y="0">D</tspan><tspan x="268.69629" y="0" style="fill: #231815;stroke: #231815">B</tspan></text>
</svg>
